<svg id="Calque_1" data-name="Calque 1" xmlns="http://www.w3.org/2000/svg" xmlns:xlink="http://www.w3.org/1999/xlink" viewBox="0 0 1366.67 750"><defs><style>.cls-1{fill:url(#Dégradé_sans_nom_5);}.cls-2{opacity:0.51;fill:url(#Dégradé_sans_nom_6);}.cls-2,.cls-22,.cls-32,.cls-33{isolation:isolate;}.cls-3{fill:url(#Dégradé_sans_nom_8);}.cls-4{fill:url(#Dégradé_sans_nom_9);}.cls-5{fill:url(#Dégradé_sans_nom_10);}.cls-6{fill:url(#Dégradé_sans_nom_11);}.cls-7{fill:url(#Dégradé_sans_nom_12);}.cls-8{fill:#ff664e;}.cls-9{fill:url(#Dégradé_sans_nom_13);}.cls-10{fill:url(#Dégradé_sans_nom_14);}.cls-11{fill:url(#Dégradé_sans_nom_15);}.cls-12{fill:#400800;}.cls-13{fill:url(#Dégradé_sans_nom_19);}.cls-14{fill:url(#Dégradé_sans_nom_20);}.cls-15{fill:url(#Dégradé_sans_nom_21);}.cls-16{fill:url(#Dégradé_sans_nom_22);}.cls-17{fill:url(#Dégradé_sans_nom_23);}.cls-18{fill:url(#Dégradé_sans_nom_24);}.cls-19{fill:url(#Dégradé_sans_nom_25);}.cls-20{fill:url(#Dégradé_sans_nom_26);}.cls-21{fill:url(#Dégradé_sans_nom_27);}.cls-22,.cls-32,.cls-33{opacity:0.63;}.cls-22{fill:url(#Dégradé_sans_nom_28);}.cls-23{fill:url(#Dégradé_sans_nom_29);}.cls-24{fill:url(#Dégradé_sans_nom_30);}.cls-25{fill:url(#Dégradé_sans_nom_31);}.cls-26{fill:url(#Dégradé_sans_nom_32);}.cls-27{fill:#fff594;}.cls-28{fill:#ffff8a;}.cls-29{fill:url(#Dégradé_sans_nom_33);}.cls-30{fill:url(#Dégradé_sans_nom_34);}.cls-31{fill:url(#Dégradé_sans_nom_35);}.cls-32{fill:url(#Dégradé_sans_nom_36);}.cls-33{fill:url(#Dégradé_sans_nom_37);}.cls-34{fill:url(#Dégradé_sans_nom_38);}</style><linearGradient id="Dégradé_sans_nom_5" x1="683" y1="998.93" x2="683" y2="248.93" gradientTransform="translate(0.67 -248.93)" gradientUnits="userSpaceOnUse"><stop offset="0" stop-color="#dc4a7c"/><stop offset="1" stop-color="#1d0035"/></linearGradient><linearGradient id="Dégradé_sans_nom_6" x1="682.67" y1="910.68" x2="682.67" y2="396.58" gradientTransform="translate(0.67 -248.93)" gradientUnits="userSpaceOnUse"><stop offset="0" stop-color="#6d0063"/><stop offset="1" stop-color="#050000"/></linearGradient><linearGradient id="Dégradé_sans_nom_8" x1="-301.17" y1="875.43" x2="-301.17" y2="613.93" gradientTransform="matrix(-1, 0, 0, 1, 935.5, -228.93)" xlink:href="#Dégradé_sans_nom_5"/><linearGradient id="Dégradé_sans_nom_9" x1="-182.47" y1="875.43" x2="-182.47" y2="613.93" gradientTransform="matrix(-1, 0, 0, 1, 935.5, -228.93)" gradientUnits="userSpaceOnUse"><stop offset="0" stop-color="#2d004b"/><stop offset="1" stop-color="#ff424b"/></linearGradient><linearGradient id="Dégradé_sans_nom_10" x1="1138.5" y1="692.43" x2="1342.4" y2="692.43" gradientTransform="translate(0.67 -248.93)" gradientUnits="userSpaceOnUse"><stop offset="0" stop-color="#050000"/><stop offset="1" stop-color="#6d0063"/></linearGradient><linearGradient id="Dégradé_sans_nom_11" x1="1142.4" y1="765.53" x2="1335.8" y2="765.53" xlink:href="#Dégradé_sans_nom_10"/><linearGradient id="Dégradé_sans_nom_12" x1="1147" y1="843.08" x2="1323.6" y2="843.08" xlink:href="#Dégradé_sans_nom_10"/><linearGradient id="Dégradé_sans_nom_13" x1="1059.3" y1="900.33" x2="1059.3" y2="788.63" gradientTransform="translate(0.67 -248.93)" gradientUnits="userSpaceOnUse"><stop offset="0" stop-color="#ff424b"/><stop offset="1" stop-color="#2d004b"/></linearGradient><linearGradient id="Dégradé_sans_nom_14" x1="822.3" y1="759.43" x2="1301.4" y2="759.43" gradientTransform="translate(0.67 -248.93)" gradientUnits="userSpaceOnUse"><stop offset="0.33" stop-color="#2d004b"/><stop offset="1" stop-color="#c81a4b"/></linearGradient><linearGradient id="Dégradé_sans_nom_15" x1="1058.3" y1="900.33" x2="1058.3" y2="671.03" xlink:href="#Dégradé_sans_nom_13"/><linearGradient id="Dégradé_sans_nom_19" x1="418.38" y1="893.83" x2="418.38" y2="668.53" gradientTransform="translate(4.92 -228.93)" gradientUnits="userSpaceOnUse"><stop offset="0" stop-color="#c81a4b"/><stop offset="0.67" stop-color="#2d004b"/></linearGradient><linearGradient id="Dégradé_sans_nom_20" x1="396.28" y1="893.83" x2="396.28" y2="668.53" gradientTransform="translate(4.92 -228.93)" xlink:href="#Dégradé_sans_nom_9"/><linearGradient id="Dégradé_sans_nom_21" x1="262" y1="721.13" x2="536.8" y2="721.13" gradientTransform="translate(0.67 -248.93)" gradientUnits="userSpaceOnUse"><stop offset="0.33" stop-color="#ff7354"/><stop offset="1" stop-color="#ffd648"/></linearGradient><linearGradient id="Dégradé_sans_nom_22" x1="441.8" y1="816.88" x2="527.3" y2="816.88" xlink:href="#Dégradé_sans_nom_21"/><linearGradient id="Dégradé_sans_nom_23" x1="273.4" y1="815.78" x2="356.6" y2="815.78" xlink:href="#Dégradé_sans_nom_21"/><linearGradient id="Dégradé_sans_nom_24" x1="521.6" y1="819.73" x2="547.1" y2="819.73" xlink:href="#Dégradé_sans_nom_21"/><linearGradient id="Dégradé_sans_nom_25" x1="533.73" y1="725.28" x2="556.45" y2="725.28" xlink:href="#Dégradé_sans_nom_21"/><linearGradient id="Dégradé_sans_nom_26" x1="122.45" y1="925.13" x2="122.45" y2="728.03" gradientTransform="translate(0.67 -248.93)" xlink:href="#Dégradé_sans_nom_9"/><linearGradient id="Dégradé_sans_nom_27" x1="215.1" y1="826.58" x2="275" y2="826.58" xlink:href="#Dégradé_sans_nom_10"/><linearGradient id="Dégradé_sans_nom_28" x1="23.6" y1="818.03" x2="229.7" y2="818.03" gradientTransform="translate(0.67 -248.93)" gradientUnits="userSpaceOnUse"><stop offset="0" stop-color="#fff"/><stop offset="1" stop-color="#ffe89a"/></linearGradient><linearGradient id="Dégradé_sans_nom_29" x1="289.7" y1="925.13" x2="289.7" y2="813.53" gradientTransform="translate(0.67 -248.93)" xlink:href="#Dégradé_sans_nom_9"/><linearGradient id="Dégradé_sans_nom_30" x1="223.8" y1="869.33" x2="407.1" y2="869.33" xlink:href="#Dégradé_sans_nom_10"/><linearGradient id="Dégradé_sans_nom_31" x1="-0.67" y1="912.17" x2="1366" y2="912.17" xlink:href="#Dégradé_sans_nom_14"/><linearGradient id="Dégradé_sans_nom_32" x1="782.04" y1="958.28" x2="1061.34" y2="958.28" gradientTransform="matrix(-1, 0, 0, 1, 1061.34, -228.93)" xlink:href="#Dégradé_sans_nom_14"/><linearGradient id="Dégradé_sans_nom_33" x1="730.4" y1="911.13" x2="730.4" y2="713.83" xlink:href="#Dégradé_sans_nom_14"/><linearGradient id="Dégradé_sans_nom_34" x1="874.55" y1="911.13" x2="874.55" y2="713.83" xlink:href="#Dégradé_sans_nom_21"/><linearGradient id="Dégradé_sans_nom_35" x1="871.98" y1="891.13" x2="871.98" y2="717.43" gradientTransform="translate(4.92 -228.93)" xlink:href="#Dégradé_sans_nom_14"/><linearGradient id="Dégradé_sans_nom_36" x1="746.3" y1="795.23" x2="914.7" y2="795.23" xlink:href="#Dégradé_sans_nom_28"/><linearGradient id="Dégradé_sans_nom_37" x1="758.7" y1="862.93" x2="952.1" y2="862.93" xlink:href="#Dégradé_sans_nom_28"/><linearGradient id="Dégradé_sans_nom_38" x1="786.01" y1="934.28" x2="1360.92" y2="934.28" gradientTransform="translate(4.92 -228.93)" xlink:href="#Dégradé_sans_nom_14"/></defs><title>bg</title><g id="bg"><rect id="loaderBg" class="cls-1" x="0.67" width="1366" height="750"/><polygon id="buildings" class="cls-2" points="0.18 661.75 1366.48 661.75 1366.48 405.15 1323.28 408.05 1325.68 508.65 1298.58 508.65 1309.38 334.85 1206.18 311.45 1206.88 369.25 1120.58 383.65 1127.28 498.95 1100.28 498.95 1101.48 271.65 1090.08 201.15 1078.98 271.65 1079.88 498.95 1025.68 501.45 1039.48 312.05 984.18 304.25 978.88 165.75 978.48 305.35 927.98 317.05 938.78 506.25 767.98 466.45 620.48 492.55 620.48 290.05 513.28 313.05 520.68 393.65 405.98 414.85 420.88 517.25 317.48 515.65 331.18 317.05 268.18 310.45 262.08 147.65 262.08 308.15 199.28 320.35 198.78 393.65 145.98 414.85 148.68 545.15 131.58 545.15 125.88 318.45 22.78 348.15 30.28 473.55 0.18 473.55 0.18 661.75"/><g id="building"><polygon class="cls-3" points="1310.17 646.5 1336.47 406.6 1136.87 385 1151.07 646.5 1310.17 646.5"/><polygon class="cls-4" points="1151.07 646.5 1108.67 644.6 1084.87 408.3 1136.87 385 1151.07 646.5"/><polygon class="cls-5" points="1139.17 427.5 1343.07 444.3 1339.97 459.5 1140.17 446.7 1139.17 427.5"/><polygon class="cls-6" points="1143.07 499.9 1336.47 513.2 1328.97 533.3 1144.37 523.5 1143.07 499.9"/><polygon class="cls-7" points="1147.67 584 1324.27 584 1318.67 604.3 1148.37 596.8 1147.67 584"/><polygon class="cls-8" points="1343.07 444.3 1333.17 436.8 1139.17 421.5 1139.17 427.5 1343.07 444.3"/><polygon class="cls-8" points="1336.47 513.2 1325.67 505.3 1143.07 492 1143.07 499.9 1336.47 513.2"/><polygon class="cls-8" points="1324.27 584 1317.37 581 1147.67 581 1147.67 584 1324.27 584"/></g><g id="church"><polygon class="cls-9" points="836.37 539.7 850.07 651.4 1274.07 651.4 1283.57 539.7 836.37 539.7"/><polygon class="cls-10" points="822.97 539.7 862.97 481.3 1261.27 481.3 1302.07 539.7 822.97 539.7"/><polygon class="cls-11" points="1111.37 458.7 1110.87 472.7 1058.97 422.1 1009.27 470.4 1009.27 461 993.87 461 993.87 499.2 1005.77 651.4 1111.97 651.4 1124.07 499.2 1124.07 459.2 1111.37 458.7"/><polygon class="cls-12" points="1013.57 462.6 990.27 462.6 1001.87 382.5 1013.57 462.6"/><polygon class="cls-12" points="987.07 486.2 993.87 487.1 1058.97 422.1 1124.07 485.6 1129.47 484.9 1058.07 416.2 987.07 486.2"/><polygon class="cls-12" points="1106.77 465.2 1128.37 465.2 1117.57 386.2 1106.77 465.2"/><polygon class="cls-12" points="1053.37 420.9 1059.97 370.7 1064.57 422.6 1053.37 420.9"/><ellipse class="cls-12" cx="1058.37" cy="469.1" rx="28.8" ry="26"/><ellipse class="cls-12" cx="1058.27" cy="544.7" rx="40.7" ry="36.7"/><polygon class="cls-8" points="993.97 497.8 1124.07 499.2 1123.87 501.7 994.07 502.3 993.97 497.8"/><polygon class="cls-8" points="1017.57 651.4 1009.87 500.1 1008.27 500.1 1014.17 651.8 1017.57 651.4"/><polygon class="cls-8" points="1098.97 651.4 1111.07 500.1 1109.07 500.1 1095.57 651.4 1098.97 651.4"/><path class="cls-8" d="M854.2,544.7l4.8,59.6h19.9l2.2-59.6Zm23.3,56.7H860l-3.6-53.6,22.2-1.3Z" transform="translate(0.67)"/><path class="cls-8" d="M904.3,544.7l2.1,59.6h20.3l2-59.6Zm21.2,56.7H906.9l-.6-53.6,21,.4Z" transform="translate(0.67)"/><path class="cls-8" d="M954.1,544.7l2.7,59.6h18.8l1.9-59.6Zm20.3,56.7H957.9L956,547.8l19.4-1.3Z" transform="translate(0.67)"/><path class="cls-8" d="M1258.1,544.1l-3.9,59.6H1238l-1.7-59.6Zm-19,56.7h14.3l2.9-53.6-18.2-1.3Z" transform="translate(0.67)"/><path class="cls-8" d="M1212.6,544.1l-2.4,59.6h-23.9l-2.3-59.6Zm-24.8,56.7h21.8l.6-53.6-24.7.4Z" transform="translate(0.67)"/><path class="cls-8" d="M1162.6,544.1l-3.1,59.6h-21.7l-2.2-59.6Zm-23.5,56.7h19l2.2-53.6-22.4-1.3Z" transform="translate(0.67)"/><polygon class="cls-8" points="890.17 651.4 888.97 539.7 894.37 539.7 891.67 651.4 890.17 651.4"/><polygon class="cls-8" points="940.57 651.8 937.57 539.7 944.37 539.7 942.97 651.8 940.57 651.8"/><polygon class="cls-8" points="1171.07 539.7 1176.97 539.7 1173.97 651.4 1170.47 651.4 1171.07 539.7"/><polygon class="cls-8" points="1218.47 539.7 1219.67 651.4 1223.37 651.4 1225.17 539.7 1218.47 539.7"/><polygon class="cls-8" points="1302.07 539.7 1298.57 545.9 1120.57 542.8 1120.87 539.7 1302.07 539.7"/><polygon class="cls-8" points="822.97 539.7 997.07 539.7 997.07 544.7 828.07 544.7 822.97 539.7"/></g><g id="arch"><path class="cls-13" d="M313.9,664.8,287.6,439.6,559,445.4,527.3,664.8H462.8l5.3-93.8c1.3-23.5-18.7-43.5-44.8-44.7a30.84,30.84,0,0,0-4.3,0h0c-26,1-46.3,20.8-45.3,44.3v.6l5.7,93.7Z" transform="translate(0.67)"/><path class="cls-14" d="M291.8,664.8,265.5,439.6l271.4,5.8L509.4,664.8H440.7L446,571c1.3-23.5-18.7-43.5-44.7-44.7a32.3,32.3,0,0,0-4.4,0h0c-26,1-46.3,20.8-45.3,44.3v.6l5.7,93.7H291.8Z" transform="translate(0.67)"/><polygon class="cls-12" points="262.67 471.2 537.47 474.6 532.57 484.5 270.87 480.5 262.67 471.2"/><polygon class="cls-12" points="266.07 439.5 271.77 429.5 546.07 437.9 559.57 445.4 266.07 439.5"/><polygon class="cls-12" points="445.87 664.8 460.77 505.4 464.37 505.4 447.97 664.8 445.87 664.8"/><polygon class="cls-12" points="442.47 569.1 527.97 569.1 520.87 577.7 446.47 573.4 442.47 569.1"/><polygon class="cls-12" points="351.77 664.8 340.27 500.9 336.57 503.3 350.47 664.8 351.77 664.8"/><polygon class="cls-12" points="274.07 569.1 357.27 569.1 352.57 574.8 281.87 574.8 274.07 569.1"/><path class="cls-8" d="M464.9,517.6,462,559.4l55.5,1.1,3.8-41.2Zm50.7,39.8H464.9l4-37.1,49.6.9Z" transform="translate(0.67)"/><path class="cls-8" d="M333.6,515.7l-55,1.4,6.3,43.4h51Zm-52.7,3.1,50.6.4,2.1,39.5-46-1.3Z" transform="translate(0.67)"/><polygon class="cls-12" points="267.07 447.9 536.67 451.4 536.67 453.9 267.07 450.9 267.07 447.9"/><polygon class="cls-15" points="537.47 474.6 534.37 469.8 269.67 469.8 262.67 471.2 537.47 474.6"/><polygon class="cls-16" points="442.47 569.1 446.57 566.8 522.27 566.8 527.97 569.1 442.47 569.1"/><polygon class="cls-17" points="357.27 569.1 352.27 566.8 280.77 564.6 274.07 569.1 357.27 569.1"/><polygon class="cls-12" points="520.87 577.7 543.07 577.7 547.77 574.8 527.97 569.1 520.87 577.7"/><polygon class="cls-18" points="547.77 574.8 543.77 571.8 522.27 566.8 527.97 569.1 547.77 574.8"/><polygon class="cls-12" points="273.37 502 529.67 507.3 550.07 511.1 550.57 508.2 530.07 504.2 273.17 499.7 273.37 502"/><polygon class="cls-12" points="532.57 484.5 553.37 488.4 557.17 482.9 537.47 474.6 532.57 484.5"/><polygon class="cls-19" points="557.17 482.9 554.77 478.9 534.37 469.8 537.47 474.6 557.17 482.9"/><polygon class="cls-8" points="307.87 664.8 301.57 613.7 330.97 613.7 334.27 664.8 307.87 664.8"/><polygon class="cls-8" points="459.97 664.8 462.67 613.7 493.47 613.7 489.77 664.8 459.97 664.8"/><polygon class="cls-12" points="493.47 613.7 504.67 617.1 501.97 664.8 489.77 664.8 493.47 613.7"/><polygon class="cls-12" points="330.97 613.7 343.27 619.2 343.27 664.8 334.27 664.8 330.97 613.7"/></g><g id="building-2" data-name="building"><polygon class="cls-20" points="43.67 676.2 15.17 495.4 231.07 479.1 215.77 676.2 43.67 676.2"/><polygon class="cls-21" points="215.77 676.2 250.97 675.2 275.67 494.5 231.07 479.1 215.77 676.2"/><polygon class="cls-8" points="20.67 530.1 228.07 517.8 227.57 523.9 21.57 535.6 20.67 530.1"/><polygon class="cls-8" points="27.77 575.1 223.77 572.7 223.27 579.7 28.17 577.7 27.77 575.1"/><polygon class="cls-8" points="35.27 622.9 219.87 622.9 219.47 628.4 35.67 625.6 35.27 622.9"/><polygon class="cls-8" points="48.47 492.9 66.57 676.2 68.67 676.2 53.07 492.5 48.47 492.9"/><polygon class="cls-8" points="100.67 488.9 102.57 676.2 104.97 676.2 104.97 488.6 100.67 488.9"/><polygon class="cls-8" points="145.17 485.6 145.17 676.2 147.67 676.2 151.07 485.1 145.17 485.6"/><polygon class="cls-8" points="189.67 482.2 178.47 676.2 179.37 676.2 192.27 482 189.67 482.2"/><polygon class="cls-22" points="230.37 488.6 24.27 553.3 32.07 602.3 192.27 558.4 34.57 618.7 39.47 649.6 222.37 590.5 230.37 488.6"/><polygon class="cls-23" points="224.47 564.6 361.17 628.4 364.97 676.2 215.77 676.2 224.47 564.6"/><polygon class="cls-24" points="364.97 676.2 400.17 676.2 407.77 635.5 264.57 576.1 224.47 564.6 361.17 628.4 364.97 676.2"/><polygon class="cls-8" points="256.77 676.2 246.07 594.8 354.47 635.5 348.77 676.2 345.37 675.4 350.17 637.2 249.67 601.6 260.27 676.2 256.77 676.2"/></g><polygon id="ground" class="cls-25" points="0 672.6 0.4 678.2 1366.67 674.4 1366.67 648.28 0 672.6"/><g id="bush"><path class="cls-26" d="M0,750s1.32-27.26,3.9-33.6c3.7-9.1,10.3,11.5,10.3,11.5S23,708.8,32,708.7,39.9,721,39.9,721s10.7-11.6,22.5-6.3c3.8,1.3,5.8,5.2,4.3,8.6a4.62,4.62,0,0,1-.9,1.5s14-15.6,27.1-13.2,13.7,16.6,13.7,16.6,22.3-21.4,40.1-16,19.5,24.1,19.5,24.1,24.3-26.1,38.3-20.8-6.6,22.5-6.6,22.5,35.1-15.4,41.9-6.4-3.7,13.8-3.7,13.8,19.1-13.8,30.8-7.2c6.4,3.6,12.4,11.8,12.4,11.8Z" transform="translate(0.67)"/><path class="cls-27" d="M64.1,726.2a6.25,6.25,0,0,0-1.7-9.3,8.86,8.86,0,0,0-1.7-.8c-8-3.6-15.5.6-19.5,3.7,3.3-2.9,11.9-9.2,21.1-5,6.4,2.9,4.8,7.5,3.8,9.4C64.8,725.4,64.1,726.2,64.1,726.2Z" transform="translate(0.67)"/><path class="cls-27" d="M38.2,722.4s1.3-12.5-7.8-12.5a9.81,9.81,0,0,0-5.5,2.1,11.36,11.36,0,0,1,7-3.4c8.5,0,7.9,10.7,7.8,12.2C39.2,721.4,38.7,721.9,38.2,722.4Z" transform="translate(0.67)"/><path class="cls-27" d="M14.77,724.22s-.6-10.8-10.4-11.5a4.53,4.53,0,0,0-1.6.3,3.46,3.46,0,0,1,3.2-1.5c7.5.5,9.6,7.1,10.2,10C15.27,723.22,14.77,724.22,14.77,724.22Z" transform="translate(0.67)"/><path class="cls-27" d="M269.14,736.5c-9-5.1-22.4,2-28.1,5.4,2.5-2.1,5.3-6.1,1-12-6.8-9-41.8,6.4-41.8,6.4s20.7-17.2,6.6-22.5c-7.9-3-18.9,3.9-27.1,10.5,8.3-7,20.3-14.9,28.7-11.8,14,5.3-6.6,22.5-6.6,22.5s35.1-15.4,41.9-6.3c4.3,5.9,1.5,9.9-1,12,5.7-3.5,19.1-10.5,28.1-5.4,6.4,3.6,12.4,13,12.4,13h-2.4C278.94,745.7,274.14,739.3,269.14,736.5Z" transform="translate(0.67)"/><path class="cls-27" d="M164.7,737.6s-1.7-18.5-19.5-24c-13.1-4-28.6,6.5-35.9,12.3,6.4-5.4,23.4-18,37.5-13.6,16.5,5.1,19.2,21.4,19.5,23.7Z" transform="translate(0.67)"/><path class="cls-27" d="M105,729.6s-.6-14.2-13.7-16.6c-7.7-1.4-15.6,3.3-21,7.5,5.2-4.4,14-10.4,22.5-8.8,12.5,2.3,13.6,15.1,13.7,16.5C105.6,729.1,105,729.6,105,729.6Z" transform="translate(0.67)"/></g><g id="stars"><path class="cls-28" d="M130,120.3a3.57,3.57,0,0,1-3.7,3.4,3.51,3.51,0,0,1-3.7-3.4,3.57,3.57,0,0,1,3.7-3.4h0A3.57,3.57,0,0,1,130,120.3Z" transform="translate(0.67)"/><path class="cls-28" d="M745.7,175.5a3.57,3.57,0,0,1-3.7,3.4,3.67,3.67,0,0,1-3.8-3.4,3.57,3.57,0,0,1,3.7-3.4h0a3.6,3.6,0,0,1,3.8,3.4Z" transform="translate(0.67)"/><path class="cls-28" d="M548.8,222.4a3.57,3.57,0,0,1-3.7,3.4,3.51,3.51,0,0,1-3.7-3.4,3.57,3.57,0,0,1,3.7-3.4h0A3.57,3.57,0,0,1,548.8,222.4Z" transform="translate(0.67)"/><ellipse class="cls-28" cx="921.07" cy="254.5" rx="3.7" ry="3.4"/><path class="cls-28" d="M1084.2,88.3a3.57,3.57,0,0,1-3.7,3.4,3.51,3.51,0,0,1-3.7-3.4,3.71,3.71,0,0,1,7.4,0Z" transform="translate(0.67)"/><path class="cls-28" d="M707.2,249a3.71,3.71,0,1,1-3.7-3.4h0A3.71,3.71,0,0,1,707.2,249Z" transform="translate(0.67)"/><ellipse class="cls-28" cx="1160.97" cy="140.5" rx="3.7" ry="3.4"/><ellipse class="cls-28" cx="1247.47" cy="95.1" rx="3.7" ry="3.4"/><path class="cls-28" d="M1241.9,236.9a3.71,3.71,0,1,1-3.7-3.4,3.64,3.64,0,0,1,3.7,3.4Z" transform="translate(0.67)"/><ellipse class="cls-28" cx="924.77" cy="173.2" rx="3.7" ry="3.4"/><path class="cls-28" d="M384.3,147.6a3.33,3.33,0,0,1-3.4,3.2,3.44,3.44,0,0,1-3.6-3.1,3.21,3.21,0,0,1,3.4-3.2h.2A3.39,3.39,0,0,1,384.3,147.6Z" transform="translate(0.67)"/><ellipse class="cls-28" cx="120.87" cy="221" rx="1.2" ry="1.1"/><ellipse class="cls-28" cx="181.67" cy="94" rx="1.2" ry="1.1"/><ellipse class="cls-28" cx="45.17" cy="249" rx="1.2" ry="1.1"/><ellipse class="cls-28" cx="168.57" cy="290.6" rx="1.2" ry="1.1"/><ellipse class="cls-28" cx="272.57" cy="116.9" rx="1.2" ry="1.1"/><path class="cls-28" d="M505.7,99.1a1.2,1.2,0,0,1-1.2,1.1,1.1,1.1,0,1,1,1.2-1.1Z" transform="translate(0.67)"/><ellipse class="cls-28" cx="801.27" cy="245.7" rx="1.2" ry="1.1"/><ellipse class="cls-28" cx="895.57" cy="319.1" rx="1.2" ry="1.1"/><path class="cls-28" d="M1048,219a1.2,1.2,0,1,1-1.2-1.1A1.2,1.2,0,0,1,1048,219Z" transform="translate(0.67)"/><path class="cls-28" d="M1275,180a1.2,1.2,0,1,1-1.2-1.1A1.13,1.13,0,0,1,1275,180Z" transform="translate(0.67)"/><ellipse class="cls-28" cx="372.07" cy="210.1" rx="1.2" ry="1.1"/><ellipse class="cls-28" cx="488.27" cy="233" rx="1.2" ry="1.1"/><path class="cls-28" d="M800.6,187.1a1.2,1.2,0,1,1-1.2-1.1,1.08,1.08,0,0,1,1.2,1.1Z" transform="translate(0.67)"/><path class="cls-28" d="M1161.5,186.7a1.2,1.2,0,0,1-1.2,1.1,1.1,1.1,0,1,1,0-2.2A1.2,1.2,0,0,1,1161.5,186.7Z" transform="translate(0.67)"/><ellipse class="cls-28" cx="742.67" cy="370.7" rx="1.2" ry="1.1"/><path class="cls-28" d="M80.4,78a1.2,1.2,0,0,1-1.2,1.1A1.13,1.13,0,0,1,78,78h0a1.2,1.2,0,0,1,2.4,0Z" transform="translate(0.67)"/><path class="cls-28" d="M772.7,68.8a3.41,3.41,0,1,1-3.4-3.1A3.25,3.25,0,0,1,772.7,68.8Z" transform="translate(0.67)"/><path class="cls-28" d="M391.1,271.2a3.53,3.53,0,1,1-3.5-3.1,3.35,3.35,0,0,1,3.5,3.1Z" transform="translate(0.67)"/></g><g id="pyramid"><polygon class="cls-29" points="627.47 662.2 728.47 662.2 834.67 464.9 627.47 662.2"/><polygon class="cls-30" points="834.67 464.9 1021.97 662.2 728.47 662.2 834.67 464.9"/><path class="cls-31" d="M1005.2,662.2l-21.2-20,8.3-10.6-3.2-3.4-7.7,11.4L938.2,599l11.4-12.3-2.2-2.3-11.3,12.7L893,556.3l12.6-16-1.9-2-12.5,16.3-43.9-41.4,13.3-20.3-2.3-2.4-13.2,20.6-23.9-22.6-2.2,4.1,23.9,22-30.5,47.7-20.7-19.1-2,3.8,20.6,18.6-32.2,50.3-18.3-13.4-1.1,2L777,617.6,748.6,662h1.3l28.4-43.4L819.5,648l-10.9,14h.8l10.7-13.6,19,13.6h2L821,647.3l33.1-41.9,41.3,37.4-17,19.2h1.1l16.9-18.3L916.6,662h3.5l-21.9-20.2L936.1,601l43.8,40.6L966,662.1h2.2l14.2-18.2,19.6,18.2ZM845,516.8l44.1,40.8L855,601.8,814.1,564ZM820.3,646.9l-40.9-29.8L812,567.3l41,37.1Zm76.9-5.9-41.1-38,34.6-43.9,43.4,40.2Z" transform="translate(0.67)"/><polygon class="cls-32" points="915.37 549.9 746.97 627.7 771.07 525.4 834.67 464.9 915.37 549.9"/><polygon class="cls-33" points="930.47 565.8 776.47 633.6 759.37 662.2 952.77 589.2 930.47 565.8"/></g><g id="bush-2" data-name="bush"><path class="cls-34" d="M1365.7,750s1.81-52.29-7.59-69.58a6.56,6.56,0,0,0-7.34-3.25c-15.77,4-16.87,22.83-16.87,22.83s-17.8-39.1-36.4-39.3-15.9,25.5-15.9,25.5-22-23.7-46-12.9c-16.8,7.6-6.8,20.8-6.8,20.8s-28.7-32.1-55.6-27.1-28.1,34-28.1,34-45.7-43.9-82.1-32.7-40,49-40,49-49.7-53.3-78.5-42.5,13.6,46,13.6,46-71.9-31.6-85.6-13,7.5,28.1,7.5,28.1-39.2-28.1-63.1-14.6c-13,7.3-26,28.7-26,28.7Z" transform="translate(0.67)"/><path class="cls-27" d="M1225.56,689.86s-9.9-13.2,6.8-20.8c16.3-7.4,31.7,1.3,39.9,7.5-6.8-5.9-24.3-18.6-43.1-10.1-13.1,5.9-9.9,15.4-7.9,19.1C1224.06,688.16,1225.56,689.86,1225.56,689.86Z" transform="translate(0.67)"/><path class="cls-27" d="M1278.46,682s-2.7-25.6,15.9-25.5a20.05,20.05,0,0,1,11.2,4.3c-4.5-4.1-9.4-6.9-14.4-7-17.2-.1-16.2,21.8-16,25C1277.26,680.76,1278.46,682,1278.46,682Z" transform="translate(0.67)"/><path class="cls-27" d="M1330.76,695.86s1.3-22.1,21.2-23.5a6.28,6.28,0,0,1,3.3.6,7.23,7.23,0,0,0-6.5-3.2c-15.2,1-19.6,14.4-20.8,20.5C1329.76,693.56,1330.76,695.86,1330.76,695.86Z" transform="translate(0.67)"/><path class="cls-27" d="M805.36,712.19c18.4-10.4,45.9,4,57.5,11.1-5.1-4.3-10.9-12.5-2-24.4,13.7-18.5,85.6,13,85.6,13s-42.4-35.1-13.6-46c16.1-6.1,38.7,8,55.5,21.5-17.1-14.3-41.6-30.6-58.7-24.1-28.8,10.8,13.6,46,13.6,46s-71.9-31.6-85.6-13c-8.9,12-3.1,20.2,2,24.4-13.86-8.48-36.83-22.78-57.5-11.1-13,7.3-25.4,26.6-25.4,26.6h5C785.56,730.59,795.36,717.79,805.36,712.19Z" transform="translate(0.67)"/><path class="cls-27" d="M1019.76,713.06s3.6-37.8,40-49c26.7-8.2,58.5,13.3,73.5,25.3-13.2-11-47.9-36.8-76.7-27.9-33.7,10.4-39.3,43.7-39.9,48.5C1018.66,711.86,1019.76,713.06,1019.76,713.06Z" transform="translate(0.67)"/><path class="cls-27" d="M1141.86,696.76s1.2-29,28.1-34c15.7-2.9,32,6.8,42.9,15.4-10.7-9.1-28.8-21.2-46.1-18.1-25.4,4.7-27.9,31-28.1,33.7C1140.76,695.66,1141.86,696.76,1141.86,696.76Z" transform="translate(0.67)"/></g></g></svg>